<svg width="646" height="379" viewBox="0 0 646 379" fill="none" xmlns="http://www.w3.org/2000/svg">
<path d="M321.786 58.23C306.748 58.23 112.785 54.7494 101.785 61.5714C90.8316 68.1613 82.57 77.3036 77.0003 88.9983C71.4307 100.693 68.6459 113.78 68.6459 128.259C68.6459 150.442 74.8653 168.773 87.3042 183.252C100.022 197.453 117.844 204.553 140.773 204.553C165.929 204.553 184.495 196.803 196.469 181.303V158.471H144.532V104.313H257.039L256.761 207.616C244.043 225.994 227.474 240.38 207.052 250.775C186.722 261.171 164.629 266.368 140.773 266.368C110.511 266.368 84.7979 260.289 63.6332 248.13C42.5614 235.879 26.6879 219.357 16.0127 198.567C5.33758 177.683 0 154.247 0 128.259C0 102.364 5.43042 78.8814 16.2912 57.8123C27.5233 36.6504 43.6753 19.9901 64.7471 7.83129C86.1903 -4.69878 292.546 1.56626 321.786 1.56626M321.647 58.26C336.685 58.26 532.646 55.4456 543.507 62.2675C554.461 68.8574 562.769 77.9997 568.431 89.6944C574.001 101.389 576.786 114.523 576.786 129.095C576.786 151.185 570.566 169.469 558.127 183.948C545.41 198.242 527.587 205.389 504.659 205.389C479.503 205.389 460.937 197.592 448.962 181.999V159.167H500.899V105.009H388.253L388.671 208.312C401.388 226.69 417.911 241.076 438.241 251.471C458.57 261.867 480.709 267.064 504.659 267.064C534.921 267.064 560.587 260.985 581.659 248.826C602.824 236.575 618.744 220.054 629.419 199.263C640.094 178.379 645.432 154.99 645.432 129.095C645.432 103.106 639.955 79.5775 629.001 58.5084C617.862 37.3466 601.71 20.6862 580.545 8.52741C559.241 -4.00266 350.888 1.59629 321.647 1.59629" fill="#F5F5F5"/>
<path d="M312 1.5H332.5L331.5 58C327 58.5 312 58.5 309 58L312 1.5Z" fill="#F5F5F5"/>
<path fill-rule="evenodd" clip-rule="evenodd" d="M128.798 369.95C123.507 375.983 116.498 379 107.773 379C102.667 379 98.2578 377.84 94.5447 375.519C90.8316 373.292 87.954 370.275 85.9118 366.47C83.8696 362.664 82.8485 358.395 82.8485 353.661C82.8485 348.928 83.916 344.658 86.051 340.853C88.0004 336.955 90.8781 333.938 94.684 331.803C98.3971 329.576 102.76 328.462 107.773 328.462C112.136 328.462 116.081 329.437 119.608 331.386C123.228 333.335 126.06 336.026 128.102 339.461L122.671 343.22C121.186 340.528 119.19 338.44 116.684 336.955C114.085 335.47 111.114 334.727 107.773 334.727C104.245 334.727 101.089 335.562 98.3043 337.233C95.6123 338.811 93.5236 341.038 92.0384 343.916C90.5532 346.793 89.8105 350.042 89.8105 353.661C89.8105 357.281 90.5067 360.53 91.8992 363.407C93.3844 366.191 95.473 368.419 98.165 370.09C100.95 371.76 104.152 372.642 107.773 372.735C110.929 372.735 113.714 372.317 116.127 371.482C118.541 370.554 120.722 369.161 122.671 367.305V357.42H110.557V351.851H128.798V369.95ZM172.241 371.9V378.025H140.077V329.297H171.545V335.284H146.76V351.155H170.153V357.142H146.76V371.9H172.241ZM224.735 329.297V378.025H218.469L190.343 340.157V378.025H183.659V329.297H189.925L218.052 367.027V329.297H224.735ZM238.381 329.297H244.925V378.025H238.381V329.297ZM277.925 378.861C274.027 378.861 270.592 378.025 267.621 376.355C264.651 374.777 262.33 372.503 260.659 369.533C258.989 366.563 258.153 363.082 258.153 359.091V329.297H264.837V359.509C264.837 363.593 265.997 366.795 268.318 369.115C270.731 371.435 273.934 372.596 277.925 372.596C282.103 372.596 285.305 371.435 287.533 369.115C289.854 366.888 291.014 363.685 291.014 359.509V329.297H297.698V359.091C297.698 363.082 296.862 366.563 295.191 369.533C293.613 372.503 291.292 374.777 288.229 376.355C285.259 378.025 281.824 378.861 277.925 378.861ZM325.963 378.861C321.229 378.861 317.191 377.933 313.85 376.076C310.508 374.127 308.048 371.389 306.47 367.862L311.065 364.382C314.221 370.043 319.28 372.874 326.242 372.874C329.769 372.874 332.554 372.132 334.596 370.647C336.639 369.162 337.66 367.166 337.66 364.66C337.66 362.711 336.964 361.179 335.571 360.066C334.179 358.859 331.858 357.838 328.609 357.003L321.369 355.332C316.727 354.218 313.293 352.594 311.065 350.459C308.837 348.232 307.723 345.447 307.723 342.106C307.723 339.414 308.419 337.001 309.812 334.866C311.204 332.824 313.246 331.246 315.938 330.133C318.63 328.926 321.786 328.323 325.407 328.323C329.677 328.323 333.39 329.158 336.546 330.829C339.609 332.499 341.93 334.773 343.508 337.651L338.774 341.27C337.381 339.043 335.571 337.326 333.343 336.119C331.023 334.913 328.377 334.309 325.407 334.309C321.972 334.309 319.28 335.005 317.331 336.398C315.474 337.697 314.546 339.553 314.546 341.967C314.546 343.823 315.242 345.354 316.634 346.561C318.027 347.675 320.487 348.649 324.014 349.485L331.255 351.295C335.803 352.408 339.145 354.033 341.28 356.167C343.322 358.302 344.343 361.04 344.343 364.382C344.343 367.352 343.601 369.904 342.116 372.039C340.63 374.174 338.495 375.844 335.71 377.051C332.926 378.257 329.677 378.861 325.963 378.861ZM413.128 369.95C407.745 375.983 400.69 379 391.964 379C386.951 378.907 382.542 377.747 378.736 375.519C375.023 373.292 372.145 370.275 370.103 366.47C368.154 362.664 367.179 358.395 367.179 353.661C367.179 348.928 368.2 344.658 370.242 340.853C372.284 336.955 375.208 333.938 379.014 331.803C382.728 329.576 387.044 328.462 391.964 328.462C396.42 328.462 400.411 329.437 403.939 331.386C407.466 333.335 410.297 336.026 412.432 339.461L407.002 343.22C405.517 340.435 403.474 338.347 400.875 336.955C398.276 335.47 395.306 334.727 391.964 334.727C388.436 334.727 385.327 335.562 382.635 337.233C379.85 338.811 377.761 341.038 376.369 343.916C374.884 346.793 374.141 350.042 374.141 353.661C374.141 357.281 374.837 360.53 376.23 363.407C377.715 366.191 379.803 368.419 382.495 370.09C385.187 371.76 388.344 372.642 391.964 372.735C395.12 372.735 397.905 372.317 400.318 371.482C402.825 370.554 405.052 369.161 407.002 367.305V357.42H394.749V351.851H413.128V369.95ZM443.762 378.861C439.863 378.861 436.428 378.025 433.458 376.355C430.487 374.777 428.167 372.503 426.496 369.533C424.825 366.563 423.989 363.082 423.989 359.091V329.297H430.673V359.509C430.673 363.593 431.833 366.795 434.154 369.115C436.567 371.435 439.77 372.596 443.762 372.596C447.939 372.596 451.188 371.435 453.508 369.115C455.829 366.888 456.989 363.685 456.989 359.509V329.297H463.534V359.091C463.534 363.082 462.745 366.563 461.167 369.533C459.496 372.503 457.175 374.777 454.205 376.355C451.234 378.025 447.753 378.861 443.762 378.861ZM482.888 359.648V377.747H476.205V329.297H497.787C500.572 329.297 503.078 329.947 505.306 331.246C507.627 332.639 509.437 334.495 510.737 336.815C512.129 339.136 512.825 341.642 512.825 344.333C512.825 346.747 512.315 349.021 511.294 351.155C510.18 353.197 508.694 354.914 506.838 356.307C505.074 357.699 503.078 358.581 500.85 358.952L498.762 359.091L512.825 377.608L505.028 378.025L491.382 359.648H482.888ZM496.952 353.522C498.623 353.522 500.154 353.104 501.547 352.269C502.939 351.434 504.007 350.32 504.749 348.928C505.585 347.536 506.002 346.004 506.002 344.333C506.002 342.756 505.585 341.27 504.749 339.878C504.007 338.486 502.939 337.372 501.547 336.537C500.154 335.702 498.623 335.284 496.952 335.284H482.888V353.522H496.952ZM541.648 378.861C537.749 378.861 534.268 378.025 531.205 376.355C528.327 374.777 526.007 372.503 524.243 369.533C522.665 366.563 521.876 363.082 521.876 359.091V329.297H528.42V359.509C528.42 363.593 529.627 366.795 532.04 369.115C534.454 371.435 537.656 372.596 541.648 372.596C545.825 372.596 549.028 371.435 551.256 369.115C553.576 366.888 554.737 363.685 554.737 359.509V329.297H561.42V359.091C561.42 363.082 560.585 366.563 558.914 369.533C557.336 372.503 555.015 374.777 551.952 376.355C548.981 378.025 545.547 378.861 541.648 378.861Z" fill="white"/>
</svg>
